<?xml version="1.0" encoding="UTF-8"?>
<svg version="1.1" xmlns="http://www.w3.org/2000/svg" width="500" height="160">
<path d="M0 0 C165 0 330 0 500 0 C500 52.8 500 105.6 500 160 C335 160 170 160 0 160 C0 107.2 0 54.4 0 0 Z " fill="#F6F6F6" transform="translate(0,0)"/>
<path d="M0 0 C0.89589844 0.00322266 1.79179688 0.00644531 2.71484375 0.00976562 C4.12056641 0.02233398 4.12056641 0.02233398 5.5546875 0.03515625 C6.49957031 0.03966797 7.44445312 0.04417969 8.41796875 0.04882812 C10.75527137 0.06063268 13.09244811 0.07709866 15.4296875 0.09765625 C15.66172005 11.69360115 15.83923628 23.28899112 15.94780922 34.88678741 C15.99992904 40.27269162 16.07057824 45.65700412 16.18408203 51.04199219 C16.29300181 56.24223885 16.35258285 61.44095816 16.37845993 66.64225769 C16.39689162 68.62314397 16.43288816 70.60394958 16.48698807 72.58418274 C16.89566555 88.16753835 16.89566555 88.16753835 13.17205811 93.07006836 C10.67679818 95.05640795 8.22208507 96.57702909 5.4296875 98.09765625 C5.0996875 98.75765625 4.7696875 99.41765625 4.4296875 100.09765625 C4.99171875 100.33226563 5.55375 100.566875 6.1328125 100.80859375 C8.97604641 102.40428625 10.91066877 104.38690168 13.1796875 106.72265625 C13.97890625 107.53992188 14.778125 108.3571875 15.6015625 109.19921875 C16.20484375 109.82570313 16.808125 110.4521875 17.4296875 111.09765625 C21.38937926 109.42535924 24.4458076 106.73460631 27.6796875 103.97265625 C28.23398438 103.50472656 28.78828125 103.03679687 29.359375 102.5546875 C30.71916076 101.40590297 32.07483915 100.25225972 33.4296875 99.09765625 C32.49378246 97.99213735 31.55588892 96.88830172 30.6171875 95.78515625 C29.83408203 94.86283203 29.83408203 94.86283203 29.03515625 93.921875 C27.50368869 92.10204872 27.50368869 92.10204872 25.85189342 90.71736431 C23.3719632 87.89304548 24.04208549 84.16856439 24.08911133 80.5871582 C24.08845421 79.28439941 24.08845421 79.28439941 24.08778381 77.95532227 C24.08987538 75.08196606 24.11322376 72.20919189 24.13671875 69.3359375 C24.14231339 67.34482644 24.14658411 65.35371126 24.14958191 63.3625946 C24.16104102 58.11982845 24.19051745 52.87731128 24.22369385 47.63464355 C24.25437171 42.28576018 24.26808236 36.9368366 24.28320312 31.58789062 C24.31538606 21.09103638 24.36659536 10.59436702 24.4296875 0.09765625 C27.49272328 0.01649632 30.55359565 -0.04291784 33.6171875 -0.08984375 C34.91366211 -0.12754883 34.91366211 -0.12754883 36.23632812 -0.16601562 C41.12023294 -0.22215246 44.50931954 -0.16804832 48.4296875 3.09765625 C50.55846479 6.29082219 50.68451076 7.11475154 50.71057129 10.78147888 C50.72770172 12.2257148 50.72770172 12.2257148 50.74517822 13.6991272 C50.74741394 14.7541745 50.74964966 15.8092218 50.75195312 16.89624023 C50.76188293 18.00881699 50.77181274 19.12139374 50.78204346 20.26768494 C50.81132223 23.95973162 50.82490035 27.65160613 50.8359375 31.34375 C50.84744244 33.91146347 50.85895789 36.47917689 50.8704834 39.04689026 C50.88882717 43.75010154 50.90142021 48.45324412 50.9074769 53.15648502 C50.91641024 60.05435359 50.95136908 66.95142393 51.00947809 73.84904999 C51.05817875 79.84036267 51.07337834 85.83130245 51.076828 91.82283211 C51.08286007 94.36122021 51.09884607 96.89960582 51.12519836 99.4378643 C51.37192659 125.04246648 51.37192659 125.04246648 44.4296875 134.09765625 C43.88574341 134.80921371 43.34179932 135.52077118 42.78137207 136.25389099 C37.65240043 142.44076338 29.95124993 145.37856439 22.1875 146.61328125 C12.18519398 147.14098085 3.91982949 143.5517195 -3.5078125 136.91015625 C-10.36927487 129.04521298 -12.31668498 120.46693192 -12.21728516 110.27978516 C-12.22604675 109.15479614 -12.23480835 108.02980713 -12.24383545 106.87072754 C-12.26567044 103.18815455 -12.25133803 99.50680183 -12.234375 95.82421875 C-12.23774625 93.25116751 -12.24260144 90.67811783 -12.24887085 88.10507202 C-12.25621947 82.73052207 -12.24607838 77.35642465 -12.22216797 71.98193359 C-12.19488048 65.77685322 -12.20384108 59.57259247 -12.2313 53.36753142 C-12.25674164 47.37718318 -12.25403019 41.38723498 -12.23939133 35.39683151 C-12.23605639 32.85549174 -12.24014742 30.314131 -12.25178909 27.7728157 C-12.26447384 24.22769669 -12.24515466 20.68416103 -12.21728516 17.13916016 C-12.22740631 16.08973236 -12.23752747 15.04030457 -12.24795532 13.95907593 C-12.14416956 6.84070722 -12.14416956 6.84070722 -9.15487671 2.97006226 C-5.73712264 0.4940459 -4.14821132 -0.0262545 0 0 Z " fill="#010101" transform="translate(76.5703125,6.90234375)"/>
<path d="M0 0 C8.58 0 17.16 0 26 0 C28.24954968 7.87342387 28.24954968 7.87342387 28.80615234 11.66821289 C28.93323578 12.51762955 29.06031921 13.3670462 29.19125366 14.24220276 C29.32149933 15.14325241 29.451745 16.04430206 29.5859375 16.97265625 C29.80052109 18.41106117 29.80052109 18.41106117 30.0194397 19.87852478 C30.47570228 22.93921523 30.92595835 26.00074244 31.375 29.0625 C33.63481103 44.43345526 36.11665914 59.7326718 39 75 C40.60163163 71.36480803 41.42940778 68.05590646 41.96484375 64.125 C42.20267578 62.41582397 42.20267578 62.41582397 42.4453125 60.67211914 C42.60773438 59.46031982 42.77015625 58.24852051 42.9375 57 C43.11152344 55.74630615 43.28554688 54.4926123 43.46484375 53.20092773 C44.12253625 48.4595572 44.76713335 43.71645701 45.41064453 38.97314453 C47.19324848 25.88134785 49.44210306 12.9658914 52 0 C60.58 0 69.16 0 78 0 C78 38.61 78 77.22 78 117 C72.06 117 66.12 117 60 117 C59.67 92.91 59.34 68.82 59 44 C58.34 49.61 57.68 55.22 57 61 C55.44822306 70.00880911 55.44822306 70.00880911 54.79833984 73.51904297 C53.29097777 81.83672848 52.08222803 90.20599034 50.8125 98.5625 C50.53728828 100.36395963 50.26189852 102.16539207 49.98632812 103.96679688 C49.32185072 108.31084287 48.66099272 112.65541681 48 117 C42.06 117 36.12 117 30 117 C28.93274882 110.88855 27.86674353 104.77688426 26.80175781 98.66503906 C26.44140025 96.59792604 26.08073671 94.53086634 25.71972656 92.46386719 C25.19249632 89.44481131 24.66647284 86.42554694 24.140625 83.40625 C23.98627991 82.523927 23.83193481 81.641604 23.6729126 80.73254395 C21.71899877 69.49846262 19.87474364 58.24846186 18 47 C17.67 70.1 17.34 93.2 17 117 C11.39 117 5.78 117 0 117 C0 78.39 0 39.78 0 0 Z " fill="#080808" transform="translate(220,21)"/>
<path d="M0 0 C42.12740385 0 42.12740385 0 49.4921875 7.125 C55.19138335 14.21208292 55.36233742 22.32904581 55.4375 31.0625 C55.44773193 31.98417969 55.45796387 32.90585937 55.46850586 33.85546875 C55.35101919 43.08351248 53.69870754 50.86707615 47.40234375 57.8203125 C46 59 46 59 44 59 C44 59.66 44 60.32 44 61 C44.5775 61.226875 45.155 61.45375 45.75 61.6875 C50.57164625 64.50012698 52.68089927 68.74405477 54.36010742 73.95239258 C55.82725371 80.93994967 55.54913935 88.19915913 55.625 95.3125 C55.66162049 97.77884195 55.70227901 100.245031 55.74765015 102.71122742 C55.77465822 104.23702446 55.7961026 105.76293316 55.81118774 107.28889465 C55.8626561 110.75649288 56.15177284 113.60709135 57 117 C50.73 117 44.46 117 38 117 C36.28562565 111.85687694 35.7315648 108.17748004 35.76171875 102.93359375 C35.74630904 101.38085054 35.73000615 99.82811597 35.71289062 98.27539062 C35.69641131 95.8504716 35.68753286 93.42619144 35.69458008 91.0012207 C35.69720249 88.64462297 35.66908432 86.28993567 35.63671875 83.93359375 C35.64692551 83.21264023 35.65713226 82.49168671 35.66764832 81.74888611 C35.59948799 78.22924745 35.04893854 76.08020687 33.21020508 73.06665039 C28.94663753 69.96648351 28.94663753 69.96648351 18 70 C18 85.51 18 101.02 18 117 C12.06 117 6.12 117 0 117 C0 78.39 0 39.78 0 0 Z " fill="#030303" transform="translate(379,21)"/>
<path d="M0 0 C9.24 0 18.48 0 28 0 C28.43570313 2.83078125 28.87140625 5.6615625 29.3203125 8.578125 C32.16057885 26.98496868 35.02213526 45.38537628 38.125 63.75 C40.13761356 75.67347953 42.05845379 87.60749738 43.875 99.5625 C43.98459045 100.27925903 44.09418091 100.99601807 44.20709229 101.73449707 C44.51313256 103.7405605 44.81525899 105.74721985 45.1171875 107.75390625 C45.28847168 108.89158447 45.45975586 110.0292627 45.63623047 111.20141602 C46 114 46 114 46 117 C39.73 117 33.46 117 27 117 C26.01 110.07 25.02 103.14 24 96 C16.74 96 9.48 96 2 96 C1.01 102.93 0.02 109.86 -1 117 C-6.61 117 -12.22 117 -18 117 C-17.25569657 108.45705058 -15.97600417 100.02583167 -14.625 91.5625 C-14.39768263 90.1247166 -14.17063408 88.68689068 -13.94384766 87.24902344 C-13.29908175 83.16550606 -12.64986833 79.08270843 -12 75 C-11.45760244 71.58344886 -10.91601648 68.16677008 -10.375 64.75 C-10.25842041 64.01547607 -10.14184082 63.28095215 -10.02172852 62.52416992 C-9.17139884 57.14554965 -8.36265418 51.76128701 -7.5625 46.375 C-6.39875708 38.55530055 -5.18236817 30.74469274 -3.9375 22.9375 C-3.77515869 21.9151123 -3.61281738 20.89272461 -3.44555664 19.83935547 C-3.28692139 18.8495166 -3.12828613 17.85967773 -2.96484375 16.83984375 C-2.8268335 15.97738037 -2.68882324 15.11491699 -2.54663086 14.22631836 C-1.74187962 9.47652489 -0.86177793 4.73977862 0 0 Z " fill="#040404" transform="translate(324,21)"/>
<path d="M0 0 C5.94 0 11.88 0 18 0 C18.01981934 2.82135498 18.03963867 5.64270996 18.06005859 8.54956055 C18.12695417 17.86951197 18.20459394 27.18935156 18.28752708 36.50917339 C18.33748086 42.15998058 18.38381114 47.81076915 18.421875 53.46166992 C18.45873917 58.91471148 18.5051025 64.36759699 18.55806351 69.82050514 C18.57660138 71.90128658 18.59171158 73.98210147 18.60334396 76.06293297 C18.62021659 78.97660693 18.64925452 81.88992397 18.68115234 84.8034668 C18.68331253 85.66445984 18.68547272 86.52545288 18.68769836 87.41253662 C18.74711105 91.65849387 18.84423913 95.21455739 21 99 C24.71013399 101.47342266 26.61060262 101.38503486 31 101 C34.1850357 99.23984869 34.83296972 98.50109084 36 95 C36.12072678 91.97277228 36.18546138 88.96690584 36.20532227 85.9387207 C36.21522186 85.01169342 36.22512146 84.08466614 36.23532104 83.12954712 C36.26693936 80.06165125 36.29169486 76.99373989 36.31640625 73.92578125 C36.33697548 71.80014134 36.35797195 69.67450553 36.37937927 67.5488739 C36.43460306 61.95115471 36.48401103 56.35339859 36.53222656 50.75561523 C36.58243931 45.04472563 36.63812656 39.33388974 36.69335938 33.62304688 C36.80094474 22.41540874 36.90188311 11.20772504 37 0 C42.94 0 48.88 0 55 0 C55.11333012 12.29230819 55.20490556 24.58426473 55.25906086 36.87697887 C55.28506342 42.58607205 55.32029 48.29478671 55.37719727 54.00366211 C55.43185108 59.52151988 55.46149064 65.03901545 55.47438622 70.55712318 C55.48356646 72.65370694 55.50149224 74.75027271 55.52865028 76.84670067 C55.84557114 102.34399392 55.84557114 102.34399392 47.9511261 111.33293152 C40.14181638 118.75577296 32.10141348 118.60553439 21.8515625 118.3671875 C16.24119115 118.06651766 12.06643207 117.04764948 8 113 C1.23091465 105.07557842 -0.30964416 97.43034017 -0.22705078 87.30102539 C-0.22748886 85.8803476 -0.22748886 85.8803476 -0.22793579 84.43096924 C-0.22654936 81.3197697 -0.2110205 78.20881364 -0.1953125 75.09765625 C-0.19157993 72.93289826 -0.18873411 70.76813858 -0.18673706 68.6033783 C-0.17911983 62.92014865 -0.15948773 57.23702208 -0.1373291 51.55383301 C-0.1168295 45.74879348 -0.10772655 39.94373721 -0.09765625 34.13867188 C-0.07624004 22.75906214 -0.04107344 11.37955578 0 0 Z " fill="#050505" transform="translate(154,21)"/>
<path d="M0 0 C4.29 0 8.58 0 13 0 C18.73869196 5.73869196 18.20847999 9.66762795 18.25 17.3125 C18.270625 18.25029297 18.29125 19.18808594 18.3125 20.15429688 C18.34252543 25.48005806 18.1812753 29.49319332 15 34 C11 36 11 36 0 36 C0 24.12 0 12.24 0 0 Z " fill="#F4F4F4" transform="translate(397,38)"/>
<path d="M0 0 C0.66 0 1.32 0 2 0 C2.25651042 1.79557292 2.51302083 3.59114583 2.76953125 5.38671875 C2.93485352 6.54349121 3.10017578 7.70026367 3.27050781 8.89208984 C3.63368421 11.43530618 3.9963089 13.97860135 4.35839844 16.52197266 C5.20415498 22.45798606 6.05437331 28.39306068 6.93359375 34.32421875 C7.07240967 35.26885986 7.21122559 36.21350098 7.35424805 37.18676758 C7.61135357 38.93321352 7.87174739 40.67917966 8.13598633 42.42456055 C8.30843872 43.60272339 8.30843872 43.60272339 8.484375 44.8046875 C8.58459961 45.47483887 8.68482422 46.14499023 8.78808594 46.83544922 C9.05334967 49.54492874 9 52.27756651 9 55 C3.39 55 -2.22 55 -8 55 C-7.32633814 49.95010731 -6.65145949 44.90040565 -5.97363281 39.85107422 C-5.74410293 38.13860129 -5.51524417 36.42603825 -5.28710938 34.71337891 C-4.00785826 25.11338479 -2.66752858 15.54186698 -1 6 C-0.66533261 4.0002228 -0.33167646 2.00027544 0 0 Z " fill="#EDEDED" transform="translate(336,46)"/>
<path d="M0 0 C0.99 0.33 1.98 0.66 3 1 C3.92844389 5.33273814 3.92844389 8.66726186 3 13 C2.67 13 2.34 13 2 13 C1.34 8.71 0.68 4.42 0 0 Z " fill="#EEEEEE" transform="translate(257,88)"/>
<path d="M0 0 C0.144375 0.61875 0.28875 1.2375 0.4375 1.875 C0.93152225 4.03258322 0.93152225 4.03258322 2 6 C1.01 6.33 0.02 6.66 -1 7 C-1.99 6.34 -2.98 5.68 -4 5 C-4 4.34 -4 3.68 -4 3 C-2 1.375 -2 1.375 0 0 Z " fill="#E5E5E5" transform="translate(427,77)"/>
</svg>
